<svg width="16" height="16" viewBox="0 0 16 16" fill="none" xmlns="http://www.w3.org/2000/svg">
<path d="M7.99935 12.3334C10.3926 12.3334 12.3327 10.3933 12.3327 8.00002C12.3327 5.60679 10.3926 3.66669 7.99935 3.66669C5.60612 3.66669 3.66602 5.60679 3.66602 8.00002C3.66602 10.3933 5.60612 12.3334 7.99935 12.3334Z" stroke="#525252" stroke-width="1.16667" stroke-linecap="round" stroke-linejoin="round"/>
<path d="M12.7606 12.76L12.674 12.6733M12.674 3.32665L12.7606 3.23998L12.674 3.32665ZM3.24065 12.76L3.32732 12.6733L3.24065 12.76ZM8.00065 1.38665V1.33331V1.38665ZM8.00065 14.6666V14.6133V14.6666ZM1.38732 7.99998H1.33398H1.38732ZM14.6673 7.99998H14.614H14.6673ZM3.32732 3.32665L3.24065 3.23998L3.32732 3.32665Z" stroke="#525252" stroke-width="1.55556" stroke-linecap="round" stroke-linejoin="round"/>
</svg>
